<svg width="8" height="13" viewBox="0 0 8 13" fill="none" xmlns="http://www.w3.org/2000/svg">
<path d="M1.50298 11.51C1.75594 11.5092 2.01126 11.4056 2.20316 11.2139C2.20329 11.2138 2.20342 11.2137 2.20355 11.2136L6.70316 6.72395L6.70355 6.72355C7.09863 6.32848 7.09881 5.7023 6.70411 5.307C6.70392 5.30682 6.70374 5.30663 6.70355 5.30645L2.21434 0.797233L2.21434 0.797232L2.21355 0.796447C1.81829 0.401184 1.19171 0.401184 0.796447 0.796447C0.401184 1.19171 0.401184 1.81829 0.796446 2.21355L0.796873 2.21398L4.59247 6.00043L0.796447 9.79645C0.403295 10.1896 0.401197 10.8116 0.790149 11.2072C0.881053 11.3031 0.99063 11.3795 1.11217 11.4316C1.23562 11.4845 1.3687 11.5112 1.50298 11.51ZM1.50298 11.51C1.50199 11.51 1.50099 11.51 1.5 11.51V11.01L1.50609 11.51C1.50505 11.51 1.50402 11.51 1.50298 11.51Z" fill="white" stroke="white"/>
</svg>
